<?xml version="1.0" encoding="UTF-8" standalone="no"?>
<!-- Created with Inkscape (http://www.inkscape.org/) -->

<svg
   width="512mm"
   height="512mm"
   viewBox="0 0 512 512"
   version="1.1"
   id="svg26175"
   inkscape:export-filename="apple-touch-icon.png"
   inkscape:export-xdpi="8.9296875"
   inkscape:export-ydpi="8.9296875"
   inkscape:version="1.2.2 (b0a84865, 2022-12-01)"
   sodipodi:docname="favicon.svg"
   xmlns:inkscape="http://www.inkscape.org/namespaces/inkscape"
   xmlns:sodipodi="http://sodipodi.sourceforge.net/DTD/sodipodi-0.dtd"
   xmlns="http://www.w3.org/2000/svg"
   xmlns:svg="http://www.w3.org/2000/svg">
  <sodipodi:namedview
     id="namedview26177"
     pagecolor="#505050"
     bordercolor="#eeeeee"
     borderopacity="1"
     inkscape:showpageshadow="0"
     inkscape:pageopacity="0"
     inkscape:pagecheckerboard="0"
     inkscape:deskcolor="#505050"
     inkscape:document-units="mm"
     showgrid="false"
     inkscape:zoom="0.14866305"
     inkscape:cx="390.14402"
     inkscape:cy="867.73411"
     inkscape:window-width="1295"
     inkscape:window-height="666"
     inkscape:window-x="175"
     inkscape:window-y="37"
     inkscape:window-maximized="0"
     inkscape:current-layer="layer1" />
  <defs
     id="defs26172" />
  <g
     inkscape:label="Layer 1"
     inkscape:groupmode="layer"
     id="layer1">
    <g
       id="g34427"
       transform="matrix(32.212418,0,0,32.212418,-3.9145984,-4.7734958)">
      <rect
         style="fill:#5b3d91;fill-opacity:1;stroke-width:1.44765;stroke-linecap:round;stroke-linejoin:round;stroke-opacity:0.108434;paint-order:fill markers stroke"
         id="rect26711-2"
         width="15.794715"
         height="15.739679"
         x="0.12541798"
         y="0.15293579"
         ry="2.7571523" />
      <path
         id="path22784-4"
         style="fill:#ccda62;fill-opacity:1;stroke-width:0.0106981"
         d="m 15.382635,3.2005666 c -0.170067,0.0011 -0.889626,0.088211 -1.397667,0.1726329 -1.831494,0.3041619 -3.35231,0.8763177 -4.2681823,1.6057009 -0.630473,0.5021316 -0.9915065,1.0256753 -1.157514,1.6788786 -0.042732,0.1682212 -0.08127,0.5769492 -0.072265,0.7669921 0.018679,0.3985163 0.081663,0.6958368 0.2317575,1.0952849 0.035396,0.094253 0.068446,0.1674344 0.073544,0.1627789 0.00505,-0.00463 0.073147,-0.1062784 0.1512805,-0.2259188 0.581663,-0.8905508 1.1131503,-1.5415911 1.7580783,-2.153526 0.6404,-0.6076193 1.299702,-1.110931 2.057539,-1.571029 0.436184,-0.264827 1.093317,-0.5857239 1.30624,-0.6377917 0.111062,-0.027152 0.267186,-0.048726 0.371543,-0.051273 l 0.0593,-0.00202 -0.285776,0.2348607 c -0.240956,0.1981654 -0.36661,0.290483 -0.802937,0.5888863 -0.693556,0.4743141 -0.857155,0.5933415 -1.211166,0.8817768 -0.901372,0.7343576 -1.60437,1.4974307 -2.2323603,2.4228771 -0.27248,0.4015727 -0.701909,1.1058451 -0.68542,1.1241191 0.01256,0.01403 0.527494,0.1958464 0.685968,0.2423421 0.1364203,0.040002 0.3393703,0.088638 0.4401583,0.1052937 0.121917,0.020186 0.464626,0.050786 0.559322,0.050003 l -1.82e-4,5.307e-4 c 0.324931,-0.00272 0.577225,-0.047871 0.858416,-0.1538363 0.786393,-0.2962965 1.393643,-1.0006614 1.938193,-2.2476892 0.17204,-0.3939682 0.312838,-0.7729225 0.58122,-1.5639126 0.271055,-0.7988552 0.375206,-1.0830885 0.531037,-1.4516818 0.131107,-0.3101316 0.306842,-0.657589 0.482678,-0.9536762 0.03475,-0.0585 0.06374,-0.1105895 0.06423,-0.1156965 3.31e-4,-0.00367 -0.01275,-0.0051 -0.03705,-0.00497 z M 14.04081,4.2788808 c -3.97e-4,-9.028e-4 -0.0084,0.00225 -0.025,0.01019 -0.01547,0.00746 -0.08646,0.041345 -0.157668,0.075179 -1.494822,0.7101916 -2.906755,1.8091915 -3.9117883,3.04479 -0.199159,0.2448497 -0.43145,0.5571443 -0.641259,0.8620693 C 9.1365377,8.516109 8.7561536,9.122631 8.6076352,9.3831839 8.4992974,9.5732263 8.4990011,9.573527 8.4775219,9.5534433 8.4656888,9.5424259 8.3881188,9.4634669 8.3050721,9.3778921 7.6142614,8.6660836 6.8574683,8.0723133 6.0561,7.6134267 4.8648355,6.9313028 3.5639487,6.4926571 2.0335438,6.2568202 c -0.069123,-0.010665 -0.070491,-0.010428 -0.021719,0.00273 0.028974,0.00722 0.1751564,0.043715 0.3255562,0.078651 0.85293,0.2006683 1.5337527,0.4253122 2.2400257,0.7392502 C 5.9906795,7.7056862 7.1574389,8.5748078 8.26291,9.822966 l 0.0615,0.069339 -0.014786,0.081387 c -0.00808,0.044794 -0.027565,0.12135 -0.043434,0.170077 -0.1104826,0.339225 -0.4261689,1.621619 -0.6047611,2.457003 -0.2131257,0.996911 -0.36047,1.961967 -0.3773827,2.470688 -0.0044,0.131857 -0.00288,0.147454 0.014416,0.149092 0.015156,0.0023 0.024406,-0.01313 0.042519,-0.06825 v -1.99e-4 C 7.3665999,15.074211 7.7152175,13.76954 8.0948347,12.330674 8.229457,11.820445 8.3819705,11.242534 8.4337139,11.046515 8.6410856,10.260904 8.7309033,9.9763831 8.8820834,9.627681 9.0024287,9.3500647 9.0644027,9.2353692 9.3395767,8.7794816 9.7941467,8.0264018 10.227704,7.4280027 10.712426,6.8845398 c 0.884627,-0.9918289 1.971792,-1.8544567 3.160672,-2.5075511 0.102271,-0.056201 0.168869,-0.095474 0.167705,-0.098175 z M 3.8058558,5.4739868 C 3.3539058,5.4735461 2.8762122,5.5028104 2.40089,5.5612149 1.8454133,5.6294289 0.92312954,5.7977351 0.76964034,5.8588505 l -0.039236,0.015697 0.1073022,0.094893 c 0.1446915,0.1281006 0.36035246,0.337641 0.48504996,0.4711806 0.279157,0.2989127 0.4444473,0.5040722 0.9659027,1.198756 0.3725255,0.4963297 0.6582287,0.8605524 0.8255702,1.0527668 0.4842961,0.5562303 0.8295663,0.8664878 1.2425534,1.1162706 0.2455983,0.1484971 0.4797529,0.2482785 0.7153481,0.3049355 0.1423701,0.03339 0.4839413,0.06112 0.6241051,0.04909 v -3.64e-4 C 5.9054511,10.144022 6.1021616,10.097729 6.3283703,10.012624 6.6548798,9.8898577 7.0000562,9.6778196 7.350114,9.3850523 L 7.4727445,9.2824945 7.4433684,9.2531183 C 7.377807,9.1875761 7.0905008,8.9236163 6.978937,8.8264584 6.2589588,8.1993732 5.3879915,7.6510192 4.4653641,7.2437494 4.1736507,7.1149949 3.9501748,7.0288518 3.1536484,6.738444 2.0674808,6.3424371 1.5749436,6.1599786 1.5802478,6.155581 1.5921898,6.145751 2.1117865,6.170732 2.4528993,6.197555 l 0.3786601,0.029748 0.3425278,0.071898 c 0.4275421,0.089739 0.5686059,0.1244169 0.7983802,0.1956258 1.1963968,0.3708868 2.2883343,0.9262782 3.24352,1.6498621 0.1262203,0.095628 0.4178329,0.3304456 0.4976413,0.4007413 0.02155,0.018913 0.041671,0.03235 0.044706,0.02993 0.00927,-0.00746 0.00664,-0.2690069 -0.00435,-0.4361438 C 7.7123996,7.5109021 7.5126927,6.986137 7.1601465,6.5780428 6.8705625,6.2428326 6.4699468,5.982691 5.946792,5.7902468 5.5835258,5.6566325 5.2645207,5.5840093 4.8004091,5.5290981 4.4932551,5.4926797 4.1573726,5.4743304 3.8058558,5.4739868 Z" />
    </g>
  </g>
</svg>
