<svg xmlns="http://www.w3.org/2000/svg" version="1.1" xmlns:xlink="http://www.w3.org/1999/xlink" xmlns:svgjs="http://svgjs.dev/svgjs" width="1920" height="256" preserveAspectRatio="none" viewBox="0 0 1920 256"><g mask="url(&quot;#SvgjsMask1314&quot;)" fill="none"><rect width="1920" height="256" x="0" y="0" fill="rgba(255, 255, 255, 1)"></rect><path d="M 0,26 C 128,32.8 384,59.2 640,60 C 896,60.8 1024,26.6 1280,30 C 1536,33.4 1792,67.6 1920,77L1920 256L0 256z" fill="rgba(131, 80, 165, 1)"></path><path d="M 0,122 C 128,130.2 384,169.2 640,163 C 896,156.8 1024,95.4 1280,91 C 1536,86.6 1792,131 1920,141L1920 256L0 256z" fill="rgba(81, 61, 148, 1)"></path><path d="M 0,223 C 192,216.6 576,184.8 960,191 C 1344,197.2 1728,241.4 1920,254L1920 256L0 256z" fill="rgba(71, 57, 120, 1)"></path></g><defs><mask id="SvgjsMask1314"><rect width="1920" height="256" fill="#ffffff"></rect></mask></defs></svg>