<svg xmlns="http://www.w3.org/2000/svg" version="1.1" xmlns:xlink="http://www.w3.org/1999/xlink" xmlns:svgjs="http://svgjs.dev/svgjs" width="1920" height="720" preserveAspectRatio="none" viewBox="0 0 1920 720"><g mask="url(&quot;#SvgjsMask1305&quot;)" fill="none"><rect width="1920" height="720" x="0" y="0" fill="rgba(255, 255, 255, 1)"></rect><path d="M 0,46 C 128,66.6 384,135.6 640,149 C 896,162.4 1024,114.2 1280,113 C 1536,111.8 1792,137 1920,143L1920 720L0 720z" fill="rgba(131, 80, 165, 1)"></path><path d="M 0,285 C 128,313.6 384,431.2 640,428 C 896,424.8 1024,265.8 1280,269 C 1536,272.2 1792,409 1920,444L1920 720L0 720z" fill="rgba(81, 61, 148, 1)"></path><path d="M 0,709 C 192,665.2 576,503.2 960,490 C 1344,476.8 1728,612.4 1920,643L1920 720L0 720z" fill="rgba(71, 57, 120, 1)"></path></g><defs><mask id="SvgjsMask1305"><rect width="1920" height="720" fill="#ffffff"></rect></mask></defs></svg>