<svg xmlns="http://www.w3.org/2000/svg" version="1.1" xmlns:xlink="http://www.w3.org/1999/xlink" xmlns:svgjs="http://svgjs.dev/svgjs" width="1920" height="1080" preserveAspectRatio="none" viewBox="0 0 1920 1080"><g mask="url(&quot;#SvgjsMask1094&quot;)" fill="none"><rect width="1920" height="1080" x="0" y="0" fill="rgba(58, 9, 105, 1)"></rect><path d="M0,828.343C153.605,817.269,294.08,740.268,412.354,641.635C521.386,550.709,601.836,429.332,641.819,293.109C678.571,167.895,656.951,36.877,627.146,-90.17C599.478,-208.107,544.965,-312.907,476.245,-412.668C399.895,-523.504,335.702,-665.639,205.994,-701.552C76.377,-737.44,-40.979,-612.316,-174.037,-592.715C-338.425,-568.498,-532.773,-678.057,-662.056,-573.675C-787.916,-472.056,-761.035,-272.299,-770.872,-110.835C-780.008,39.117,-771.639,187.499,-716.954,327.422C-659.961,473.249,-580.767,614.31,-452.422,703.982C-321.564,795.41,-159.221,839.822,0,828.343" fill="#2e0754"></path><path d="M1920 1656.922C2031.686 1643.6 2135.146 1616.675 2241.6440000000002 1580.488 2382.415 1532.655 2579.514 1544.593 2644.3450000000003 1410.797 2708.777 1277.824 2579.684 1130.632 2526.4030000000002 992.812 2484.718 884.987 2433.892 786.989 2366.7889999999998 692.856 2292.852 589.137 2230.844 468.798 2115.041 415.75 1992.459 359.597 1852.682 377.033 1719.223 396.216 1567.455 418.03 1404.7269999999999 432.31899999999996 1290.233 534.303 1170.272 641.156 1089.786 799.5029999999999 1086.156 960.111 1082.654 1115.032 1186.549 1246.501 1271.2 1376.297 1344.954 1489.384 1421.035 1609.989 1544.952 1663.587 1662.086 1714.251 1793.277 1672.037 1920 1656.922" fill="#460b7e"></path></g><defs><mask id="SvgjsMask1094"><rect width="1920" height="1080" fill="#ffffff"></rect></mask></defs></svg>