<svg xmlns="http://www.w3.org/2000/svg" version="1.1" xmlns:xlink="http://www.w3.org/1999/xlink" xmlns:svgjs="http://svgjs.dev/svgjs" width="1920" height="1080" preserveAspectRatio="none" viewBox="0 0 1920 1080"><g mask="url(&quot;#SvgjsMask1282&quot;)" fill="none"><rect width="1920" height="1080" x="0" y="0" fill="rgba(255, 255, 255, 1)"></rect><path d="M 0,14 C 128,63.8 384,264 640,263 C 896,262 1024,23.4 1280,9 C 1536,-5.4 1792,154.6 1920,191L1920 1080L0 1080z" fill="rgba(131, 80, 165, 1)"></path><path d="M 0,484 C 128,455.8 384,345.4 640,343 C 896,340.6 1024,466.6 1280,472 C 1536,477.4 1792,390.4 1920,370L1920 1080L0 1080z" fill="rgba(81, 61, 148, 1)"></path><path d="M 0,684 C 192,668.8 576,595.6 960,608 C 1344,620.4 1728,718.4 1920,746L1920 1080L0 1080z" fill="rgba(71, 57, 120, 1)"></path><path d="M 0,878 C 128,895.8 384,958.6 640,967 C 896,975.4 1024,907.6 1280,920 C 1536,932.4 1792,1007.2 1920,1029L1920 1080L0 1080z" fill="rgba(255, 255, 255, 1)"></path></g><defs><mask id="SvgjsMask1282"><rect width="1920" height="1080" fill="#ffffff"></rect></mask></defs></svg>