<?xml version="1.0" encoding="UTF-8" standalone="no"?>
<!-- Created with Inkscape (http://www.inkscape.org/) -->

<svg
   width="120mm"
   height="60mm"
   viewBox="0 0 120 60"
   version="1.1"
   id="svg21557"
   inkscape:version="1.2.2 (b0a84865, 2022-12-01)"
   sodipodi:docname="plant-emoji.svg"
   inkscape:export-filename="plant-emoji.png"
   inkscape:export-xdpi="25.4"
   inkscape:export-ydpi="25.4"
   xmlns:inkscape="http://www.inkscape.org/namespaces/inkscape"
   xmlns:sodipodi="http://sodipodi.sourceforge.net/DTD/sodipodi-0.dtd"
   xmlns="http://www.w3.org/2000/svg"
   xmlns:svg="http://www.w3.org/2000/svg">
  <sodipodi:namedview
     id="namedview21559"
     pagecolor="#505050"
     bordercolor="#eeeeee"
     borderopacity="1"
     inkscape:showpageshadow="0"
     inkscape:pageopacity="0"
     inkscape:pagecheckerboard="0"
     inkscape:deskcolor="#505050"
     inkscape:document-units="mm"
     showgrid="false"
     inkscape:zoom="0.84096521"
     inkscape:cx="64.211931"
     inkscape:cy="97.507006"
     inkscape:window-width="1295"
     inkscape:window-height="726"
     inkscape:window-x="175"
     inkscape:window-y="37"
     inkscape:window-maximized="0"
     inkscape:current-layer="layer1" />
  <defs
     id="defs21554" />
  <g
     inkscape:label="Layer 1"
     inkscape:groupmode="layer"
     id="layer1">
    <g
       id="g452">
      <path
         id="path22784"
         style="fill:#ccda62;fill-opacity:1;stroke-width:0.0411027"
         d="m 86.971152,0.70330301 c -0.653411,0.004231 -3.417998,0.33892519 -5.369915,0.66326399 -7.03671,1.1686094 -12.879775,3.3668649 -16.39861,6.1691985 -2.422313,1.9292183 -3.809425,3.9407055 -4.447235,6.4503485 -0.16419,0.646315 -0.312247,2.216671 -0.277644,2.946828 0.07177,1.53112 0.313753,2.673443 0.890427,4.208151 0.135993,0.362101 0.262967,0.643289 0.282554,0.625404 0.01946,-0.01796 0.281038,-0.408329 0.581233,-0.867992 2.234779,-3.421549 4.276785,-5.922883 6.754636,-8.273974 2.460455,-2.334506 4.993531,-4.2682612 7.905183,-6.0359857 1.675847,-1.0174813 4.200584,-2.2503835 5.018652,-2.4504309 0.426693,-0.1043355 1.026544,-0.1872206 1.42749,-0.1970164 l 0.227866,-0.00771 -1.097962,0.9023467 c -0.925785,0.761355 -1.408555,1.1160473 -3.084949,2.2625307 -2.664683,1.8223422 -3.293239,2.2796529 -4.653366,3.3878356 -3.463127,2.821448 -6.164088,5.753218 -8.57686,9.308837 -1.046886,1.542865 -2.696776,4.248721 -2.633426,4.318928 0.04826,0.05389 2.026662,0.752454 2.635529,0.931093 0.524133,0.153724 1.303879,0.340551 1.691114,0.404549 0.468411,0.07757 1.785121,0.195137 2.148946,0.192109 l -6.99e-4,0.002 c 1.248403,-0.01058 2.21773,-0.183949 3.29809,-0.591048 3.021366,-1.138388 5.354455,-3.8446 7.446647,-8.635756 0.660989,-1.513648 1.201941,-2.969611 2.233083,-6.00864 1.041406,-3.0692496 1.441563,-4.161289 2.040274,-5.5774486 0.503717,-1.1915441 1.178909,-2.5264963 1.854474,-3.6640781 0.133479,-0.2247715 0.24492,-0.42491799 0.246796,-0.44451358 0.0013,-0.01389 -0.04897,-0.0195352 -0.142328,-0.0189312 z M 81.815781,4.8462505 c -0.0015,-0.00347 -0.03224,0.00868 -0.09606,0.039263 -0.05943,0.028559 -0.332197,0.158867 -0.605771,0.2888622 -5.743183,2.7286045 -11.16791,6.9510253 -15.02931,11.6982693 -0.765181,0.940726 -1.657655,2.140575 -2.463753,3.312115 -0.647627,0.941303 -2.109083,3.271596 -2.679699,4.272655 -0.416241,0.730154 -0.417377,0.731309 -0.499902,0.654149 -0.04548,-0.04245 -0.343495,-0.345684 -0.662562,-0.674483 -2.654117,-2.734807 -5.561761,-5.016107 -8.640664,-6.779176 -4.576907,-2.620761 -9.574989,-4.306063 -15.454894,-5.212162 -0.26558,-0.04083 -0.270829,-0.04008 -0.08344,0.01058 0.111323,0.02776 0.672961,0.167967 1.250806,0.302185 3.277006,0.77099 5.892766,1.634086 8.606309,2.840256 5.429876,2.413714 9.912632,5.752929 14.159916,10.548425 l 0.236279,0.266427 -0.0568,0.312702 c -0.03103,0.172104 -0.105882,0.466234 -0.166867,0.653447 -0.424479,1.303322 -1.637366,6.230354 -2.323528,9.439945 -0.81884,3.830192 -1.384948,7.537995 -1.449928,9.49253 -0.01686,0.506603 -0.01109,0.566528 0.05539,0.572819 0.05824,0.0087 0.09378,-0.05044 0.163361,-0.26222 v -7.67e-4 c 0.09843,-0.299272 1.437836,-5.311882 2.896348,-10.840091 0.51722,-1.960334 1.103187,-4.180705 1.301988,-4.933816 0.796736,-3.018363 1.141822,-4.111513 1.722663,-5.451246 0.462377,-1.06662 0.700481,-1.507282 1.75772,-3.258829 1.746483,-2.893378 3.412231,-5.192464 5.274562,-7.28048 3.3988,-3.810665 7.575751,-7.1249313 12.143491,-9.6341602 C 81.564371,5.0075324 81.820239,4.856616 81.81577,4.8462449 Z M 42.492493,9.4379164 c -1.73642,-0.00169 -3.571746,0.1107402 -5.39796,0.3351386 -2.134176,0.262084 -5.677643,0.908728 -6.267357,1.143534 l -0.150741,0.06029 0.412262,0.364584 c 0.555912,0.492174 1.384494,1.297238 1.863589,1.810306 1.072538,1.148438 1.707594,1.936672 3.711055,4.60569 1.431266,1.906925 2.528954,3.306292 3.171888,4.044789 1.860693,2.137075 3.187241,3.329099 4.77396,4.28878 0.943603,0.570536 1.843238,0.9539 2.748409,1.17158 0.546995,0.128255 1.859331,0.234826 2.397847,0.188602 v -0.0014 c 0.803816,-0.06939 1.55959,-0.247234 2.428696,-0.574221 1.254469,-0.471675 2.580656,-1.286337 3.925598,-2.411168 l 0.471156,-0.394031 -0.112878,-0.112879 c -0.251881,-0.251787 -1.35573,-1.265944 -1.784363,-1.63923 -2.766198,-2.409297 -6.112506,-4.516107 -9.657294,-6.080856 -1.120779,-0.494687 -1.979386,-0.825651 -5.039685,-1.941416 -4.173122,-1.52148 -6.065478,-2.222496 -6.045099,-2.239393 0.04589,-0.03755 2.042202,0.0582 3.352779,0.161259 l 1.454834,0.114281 1.316011,0.276244 c 1.642642,0.344794 2.184617,0.478018 3.067423,0.751605 4.596626,1.424971 8.791913,3.558818 12.461792,6.338869 0.484946,0.367401 1.605338,1.26959 1.911967,1.539671 0.0828,0.07269 0.160099,0.124309 0.171777,0.114981 0.03559,-0.02856 0.02564,-1.033537 -0.01682,-1.675689 -0.15968,-2.413976 -0.926964,-4.43015 -2.281468,-5.998075 C 54.267274,12.391869 52.728084,11.392388 50.718092,10.653006 49.322404,10.139652 48.096766,9.8606271 46.313623,9.6496563 45.133519,9.5097365 43.843041,9.4392338 42.492493,9.4379164 Z" />
      <path
         d="M 10.835772,50.3079 H 7.4383079 v -3.64014 h 3.8828161 l 0.687582,-5.096196 H 8.6112419 v -3.64014 h 3.8828161 l 1.132488,-8.129646 h 3.923262 l -1.132488,8.129646 h 4.004154 l 1.132488,-8.129646 h 3.923261 l -1.132487,8.129646 h 3.397463 v 3.64014 h -3.882815 l -0.687582,5.096196 h 3.397463 V 50.3079 H 22.68645 l -1.132488,8.129646 H 17.6307 L 18.763188,50.3079 h -4.004154 l -1.132488,8.129646 H 9.7032838 Z m 9.10035,-8.736336 h -4.004154 l -0.687582,5.096196 h 4.004154 z"
         style="font-weight:bold;font-size:40.446px;font-family:Avenir;-inkscape-font-specification:'Avenir Bold';text-align:center;text-anchor:middle;fill:#37abc8;stroke-width:20.9666;stroke-linecap:round;stroke-linejoin:round;stroke-opacity:0.108434;paint-order:fill markers stroke"
         id="path434" />
      <path
         d="m 46.630442,36.798936 q -0.768474,-0.970704 -2.103192,-1.41561 -1.294272,-0.485352 -2.467206,-0.485352 -0.687582,0 -1.41561,0.161784 -0.728028,0.161784 -1.375164,0.525798 -0.647136,0.323568 -1.051596,0.889812 -0.40446,0.566244 -0.40446,1.375164 0,1.294272 0.970704,1.981854 0.970704,0.687582 2.42676,1.172934 1.496502,0.485352 3.195234,0.970704 1.698732,0.485352 3.154788,1.375164 1.496502,0.889812 2.467206,2.386314 0.970704,1.496502 0.970704,4.004154 0,2.386314 -0.889812,4.165938 -0.889812,1.779624 -2.42676,2.952558 -1.496502,1.172934 -3.518802,1.739178 -1.981854,0.566244 -4.206384,0.566244 -2.790774,0 -5.177088,-0.849366 -2.386314,-0.849366 -4.449059,-2.750328 l 4.489505,-4.934412 q 0.970704,1.294272 2.42676,2.0223 1.496502,0.687582 3.073896,0.687582 0.768474,0 1.536948,-0.161784 0.80892,-0.20223 1.41561,-0.566244 0.647136,-0.364014 1.01115,-0.930258 0.40446,-0.566244 0.40446,-1.334718 0,-1.294272 -1.01115,-2.0223 -0.970704,-0.768474 -2.467206,-1.294272 -1.496502,-0.525798 -3.23568,-1.051596 -1.739178,-0.525798 -3.23568,-1.41561 -1.496502,-0.889812 -2.507652,-2.345868 -0.970704,-1.456056 -0.970704,-3.84237 0,-2.305422 0.889812,-4.0446 0.930258,-1.739178 2.42676,-2.912112 1.536948,-1.172934 3.518802,-1.739178 1.981854,-0.60669 4.085046,-0.60669 2.42676,0 4.691736,0.687582 2.264976,0.687582 4.085046,2.305422 z"
         style="font-weight:bold;font-size:40.446px;font-family:Avenir;-inkscape-font-specification:'Avenir Bold';text-align:center;text-anchor:middle;fill:#37abc8;stroke-width:20.9666;stroke-linecap:round;stroke-linejoin:round;stroke-opacity:0.108434;paint-order:fill markers stroke"
         id="path436" />
      <path
         d="m 54.153375,44.119662 q 0,-3.43791 1.132488,-6.228684 1.172934,-2.790774 3.23568,-4.732182 2.062746,-1.981854 4.893966,-3.03345 2.83122,-1.051596 6.188238,-1.051596 3.357018,0 6.188238,1.051596 2.83122,1.051596 4.893965,3.03345 2.062746,1.941408 3.195234,4.732182 1.172934,2.790774 1.172934,6.228684 0,3.43791 -1.172934,6.228684 -1.132488,2.790774 -3.195234,4.772628 -2.062745,1.941408 -4.893965,2.993004 -2.83122,1.051596 -6.188238,1.051596 -3.357018,0 -6.188238,-1.051596 -2.83122,-1.051596 -4.893966,-2.993004 -2.062746,-1.981854 -3.23568,-4.772628 -1.132488,-2.790774 -1.132488,-6.228684 z m 6.552252,0 q 0,2.0223 0.60669,3.721032 0.647136,1.658286 1.82007,2.912112 1.172934,1.21338 2.790774,1.900962 1.658286,0.687582 3.680586,0.687582 2.0223,0 3.64014,-0.687582 1.658286,-0.687582 2.83122,-1.900962 1.172934,-1.253826 1.779624,-2.912112 0.647136,-1.698732 0.647136,-3.721032 0,-1.981854 -0.647136,-3.680586 -0.60669,-1.698732 -1.779624,-2.912112 -1.172934,-1.253826 -2.83122,-1.941408 -1.61784,-0.687582 -3.64014,-0.687582 -2.0223,0 -3.680586,0.687582 -1.61784,0.687582 -2.790774,1.941408 -1.172934,1.21338 -1.82007,2.912112 -0.60669,1.698732 -0.60669,3.680586 z"
         style="font-weight:bold;font-size:40.446px;font-family:Avenir;-inkscape-font-specification:'Avenir Bold';text-align:center;text-anchor:middle;fill:#37abc8;stroke-width:20.9666;stroke-linecap:round;stroke-linejoin:round;stroke-opacity:0.108434;paint-order:fill markers stroke"
         id="path438" />
      <path
         d="M 96.378951,46.222854 85.620315,29.801778 h 7.846524 l 6.0669,10.71819 6.430911,-10.71819 h 7.48251 l -10.75863,16.421076 v 12.214692 h -6.309579 z"
         style="font-weight:bold;font-size:40.446px;font-family:Avenir;-inkscape-font-specification:'Avenir Bold';text-align:center;text-anchor:middle;fill:#37abc8;stroke-width:20.9666;stroke-linecap:round;stroke-linejoin:round;stroke-opacity:0.108434;paint-order:fill markers stroke"
         id="path440" />
    </g>
  </g>
</svg>
