<?xml version="1.0" encoding="UTF-8" standalone="no"?>
<!-- Created with Inkscape (http://www.inkscape.org/) -->

<svg
   width="120mm"
   height="60mm"
   viewBox="0 0 120 60"
   version="1.1"
   id="svg21557"
   inkscape:version="1.2.2 (b0a84865, 2022-12-01)"
   sodipodi:docname="plant-emoji.svg"
   inkscape:export-filename="plant-emoji.png"
   inkscape:export-xdpi="25.4"
   inkscape:export-ydpi="25.4"
   xmlns:inkscape="http://www.inkscape.org/namespaces/inkscape"
   xmlns:sodipodi="http://sodipodi.sourceforge.net/DTD/sodipodi-0.dtd"
   xmlns="http://www.w3.org/2000/svg"
   xmlns:svg="http://www.w3.org/2000/svg">
  <sodipodi:namedview
     id="namedview21559"
     pagecolor="#505050"
     bordercolor="#eeeeee"
     borderopacity="1"
     inkscape:showpageshadow="0"
     inkscape:pageopacity="0"
     inkscape:pagecheckerboard="0"
     inkscape:deskcolor="#505050"
     inkscape:document-units="mm"
     showgrid="false"
     inkscape:zoom="0.84096521"
     inkscape:cx="64.211931"
     inkscape:cy="97.507007"
     inkscape:window-width="1295"
     inkscape:window-height="726"
     inkscape:window-x="175"
     inkscape:window-y="60"
     inkscape:window-maximized="0"
     inkscape:current-layer="layer1" />
  <defs
     id="defs21554" />
  <g
     inkscape:label="Layer 1"
     inkscape:groupmode="layer"
     id="layer1">
    <g
       id="g24347"
       transform="matrix(1.2743111,0,0,1.2743111,-0.69176573,-0.86721788)">
      <path
         id="path22784"
         style="fill:#ccda62;fill-opacity:1;stroke-width:0.0322548"
         d="m 68.792399,1.232447 c -0.512756,0.00332 -2.682232,0.2659674 -4.213975,0.5204883 -5.521972,0.9170519 -10.107245,2.6421059 -12.868608,4.8412028 -1.90088,1.5139304 -2.989399,3.0924203 -3.489913,5.0618319 -0.128846,0.507188 -0.245032,1.739505 -0.217878,2.312487 0.05632,1.201528 0.246214,2.097952 0.698752,3.302295 0.106719,0.284154 0.20636,0.504813 0.221731,0.490778 0.01527,-0.01409 0.220541,-0.320431 0.456115,-0.681146 1.753716,-2.685019 3.356155,-4.64791 5.300618,-6.4929 1.930812,-1.8319743 3.918612,-3.3494652 6.203495,-4.7366653 1.315101,-0.798456 3.296357,-1.7659609 3.938326,-1.9229456 0.334842,-0.081876 0.805568,-0.1469191 1.120205,-0.1546062 l 0.178815,-0.00605 -0.861612,0.7081055 c -0.726498,0.597464 -1.105346,0.8758044 -2.420876,1.7754932 -2.091077,1.4300607 -2.584329,1.7889296 -3.651672,2.6585621 -2.717646,2.2140963 -4.837192,4.5147673 -6.730585,7.3049953 -0.821531,1.210745 -2.116262,3.334132 -2.066549,3.389226 0.03787,0.04229 1.590398,0.590479 2.068199,0.730664 0.411307,0.120633 1.023203,0.267243 1.327081,0.317465 0.36758,0.06087 1.400852,0.153131 1.686359,0.150755 l -5.49e-4,0.0016 c 0.979669,-0.0083 1.740337,-0.144352 2.588136,-0.463818 2.37098,-0.893336 4.201843,-3.017002 5.843665,-6.776803 0.518703,-1.187817 0.943208,-2.330366 1.752384,-4.7152068 0.817231,-2.4085556 1.131249,-3.2655201 1.60108,-4.376834 0.395286,-0.9350496 0.925135,-1.982637 1.455276,-2.8753403 0.104746,-0.1763867 0.192198,-0.3334492 0.19367,-0.3488266 0.001,-0.0109 -0.03843,-0.01533 -0.11169,-0.014856 z m -4.045614,3.2511272 c -0.0012,-0.00272 -0.0253,0.00681 -0.07538,0.030811 -0.04664,0.022411 -0.260687,0.1246689 -0.475371,0.2266811 -4.506895,2.141239 -8.763883,5.4547317 -11.794069,9.1800737 -0.600466,0.738223 -1.300824,1.67979 -1.9334,2.599141 -0.508217,0.738676 -1.655077,2.567345 -2.102861,3.352914 -0.32664,0.572979 -0.327531,0.573886 -0.392292,0.513335 -0.03569,-0.03331 -0.269553,-0.271271 -0.519937,-0.529292 -2.082786,-2.146106 -4.364524,-3.936328 -6.780655,-5.319875 -3.591672,-2.05661 -7.513855,-3.37913 -12.128039,-4.09018 -0.20841,-0.03204 -0.212529,-0.03145 -0.06548,0.0083 0.08736,0.02178 0.528098,0.13181 0.981555,0.237136 2.57159,0.605025 4.624276,1.282329 6.753695,2.228856 4.261029,1.894132 7.778817,4.51454 11.111821,8.277747 l 0.185417,0.209075 -0.04457,0.245389 c -0.02435,0.135057 -0.08309,0.365872 -0.130947,0.512785 -0.333105,1.022766 -1.284903,4.889194 -1.82336,7.407881 -0.642575,3.005696 -1.086821,5.915349 -1.137813,7.449146 -0.01323,0.397551 -0.0087,0.444576 0.04347,0.449513 0.0457,0.0068 0.07359,-0.03958 0.128196,-0.205774 v -6.02e-4 c 0.07724,-0.23485 1.128324,-4.168434 2.272873,-8.506628 0.405882,-1.538348 0.865713,-3.280757 1.021719,-3.871752 0.625229,-2.368623 0.896031,-3.226459 1.351839,-4.277798 0.362845,-0.837017 0.549694,-1.182821 1.379349,-2.557326 1.370531,-2.270543 2.677707,-4.074723 4.139148,-5.713268 2.667161,-2.9903699 5.944972,-5.5911997 9.52945,-7.5602863 0.308351,-0.1694385 0.50914,-0.2878683 0.505633,-0.2960069 z M 33.888317,8.0868277 c -1.362634,-0.00133 -2.802884,0.086902 -4.235983,0.2629959 -1.674768,0.2056671 -4.45546,0.713113 -4.918231,0.8973743 l -0.118292,0.047315 0.323517,0.2861031 c 0.436245,0.3862274 1.086465,1.017991 1.462429,1.420615 0.841661,0.901223 1.340013,1.51978 2.912205,3.614259 1.123168,1.496436 1.984565,2.594572 2.4891,3.174098 1.460156,1.677044 2.501148,2.61247 3.746306,3.365568 0.740481,0.447721 1.446459,0.748561 2.156781,0.919383 0.429247,0.100646 1.459087,0.184277 1.881681,0.148003 v -0.0011 c 0.630784,-0.05445 1.223869,-0.194014 1.905889,-0.450613 0.984429,-0.370141 2.025138,-1.009437 3.080565,-1.892135 l 0.369734,-0.309211 -0.08858,-0.08858 c -0.19766,-0.197587 -1.063892,-0.993434 -1.400257,-1.286366 -2.17074,-1.890666 -4.796714,-3.543959 -7.578443,-4.771877 -0.879517,-0.388199 -1.553299,-0.647919 -3.954831,-1.523502 -3.274806,-1.193963 -4.759809,-1.744077 -4.743817,-1.757336 0.03601,-0.02947 1.602593,0.04567 2.631052,0.126546 l 1.141663,0.08968 1.032724,0.216779 c 1.289043,0.270573 1.714351,0.375119 2.407122,0.589813 3.607146,1.118229 6.899346,2.792739 9.779239,4.97435 0.380555,0.288313 1.259769,0.996295 1.500392,1.208238 0.06498,0.05704 0.125636,0.09755 0.1348,0.09023 0.02793,-0.02241 0.02012,-0.811056 -0.0132,-1.314977 C 45.666576,14.228142 45.064459,12.645974 44.001529,11.415564 43.128432,10.404906 41.920572,9.6205755 40.343255,9.0403543 39.248006,8.6375058 38.286202,8.4185447 36.886902,8.252988 35.96083,8.1431876 34.948143,8.0878615 33.888317,8.0868277 Z" />
      <text
         xml:space="preserve"
         style="font-weight:bold;font-size:31.7395px;font-family:'Helvetica Neue';-inkscape-font-specification:'Helvetica Neue Bold';text-align:center;text-anchor:middle;fill:#37abc8;fill-opacity:1;stroke-width:16.4533;stroke-linecap:round;stroke-linejoin:round;stroke-opacity:0.108434;paint-order:fill markers stroke"
         x="46.942997"
         y="46.538685"
         id="text21782"><tspan
           sodipodi:role="line"
           id="tspan21780"
           style="font-style:normal;font-variant:normal;font-weight:bold;font-stretch:normal;font-family:Avenir;-inkscape-font-specification:'Avenir Bold';fill:#37abc8;fill-opacity:1;stroke-width:16.4533"
           x="46.942997"
           y="46.538685">#SOY</tspan></text>
    </g>
  </g>
</svg>
