<?xml version="1.0" encoding="UTF-8"?>
<svg xmlns="http://www.w3.org/2000/svg" version="1.1" width="100" height="100" viewBox="0 0 100 100"><rect x="0" y="0" width="100" height="100" fill="#ffffff"/><g transform="scale(3.03)"><g transform="translate(0,0)"><path fill-rule="evenodd" d="M8 0L8 1L9 1L9 2L8 2L8 5L9 5L9 4L11 4L11 5L10 5L10 10L8 10L8 11L9 11L9 12L8 12L8 13L9 13L9 14L10 14L10 15L9 15L9 17L8 17L8 15L7 15L7 14L5 14L5 13L7 13L7 12L6 12L6 11L7 11L7 10L5 10L5 11L3 11L3 9L4 9L4 8L0 8L0 10L1 10L1 11L0 11L0 12L2 12L2 13L4 13L4 15L7 15L7 16L6 16L6 17L7 17L7 18L6 18L6 19L7 19L7 20L4 20L4 18L3 18L3 17L5 17L5 16L2 16L2 18L3 18L3 19L1 19L1 20L0 20L0 22L2 22L2 21L3 21L3 24L2 24L2 23L1 23L1 24L0 24L0 25L1 25L1 24L2 24L2 25L3 25L3 24L5 24L5 25L7 25L7 24L8 24L8 26L9 26L9 24L10 24L10 26L12 26L12 28L10 28L10 27L9 27L9 28L10 28L10 29L12 29L12 30L9 30L9 29L8 29L8 33L9 33L9 31L12 31L12 32L11 32L11 33L14 33L14 32L13 32L13 30L14 30L14 29L12 29L12 28L14 28L14 27L15 27L15 28L16 28L16 29L15 29L15 31L17 31L17 33L18 33L18 31L19 31L19 28L20 28L20 32L21 32L21 33L22 33L22 32L21 32L21 29L32 29L32 30L33 30L33 29L32 29L32 28L33 28L33 27L31 27L31 25L30 25L30 26L29 26L29 24L30 24L30 21L31 21L31 24L32 24L32 25L33 25L33 24L32 24L32 23L33 23L33 21L31 21L31 20L30 20L30 21L29 21L29 24L28 24L28 23L27 23L27 21L26 21L26 22L25 22L25 23L27 23L27 24L24 24L24 21L22 21L22 20L26 20L26 19L23 19L23 18L25 18L25 17L26 17L26 18L27 18L27 19L28 19L28 20L29 20L29 19L30 19L30 18L31 18L31 19L32 19L32 20L33 20L33 19L32 19L32 18L33 18L33 16L31 16L31 14L32 14L32 13L30 13L30 14L29 14L29 15L28 15L28 13L29 13L29 11L31 11L31 12L32 12L32 11L33 11L33 8L32 8L32 9L31 9L31 8L28 8L28 9L31 9L31 10L27 10L27 9L26 9L26 8L24 8L24 7L25 7L25 6L24 6L24 7L23 7L23 6L22 6L22 7L23 7L23 8L24 8L24 9L23 9L23 12L22 12L22 13L25 13L25 12L26 12L26 11L28 11L28 13L27 13L27 14L26 14L26 15L25 15L25 17L24 17L24 16L23 16L23 14L20 14L20 13L19 13L19 14L18 14L18 12L19 12L19 11L18 11L18 12L17 12L17 10L21 10L21 9L22 9L22 8L21 8L21 5L22 5L22 4L23 4L23 2L24 2L24 3L25 3L25 1L24 1L24 0L23 0L23 2L22 2L22 0L17 0L17 1L18 1L18 2L19 2L19 1L21 1L21 2L20 2L20 3L17 3L17 4L15 4L15 3L14 3L14 0L12 0L12 1L11 1L11 0L10 0L10 1L9 1L9 0ZM11 2L11 4L12 4L12 3L13 3L13 2ZM21 2L21 3L20 3L20 5L21 5L21 4L22 4L22 2ZM13 4L13 5L12 5L12 6L11 6L11 8L12 8L12 6L13 6L13 9L14 9L14 11L15 11L15 12L16 12L16 13L17 13L17 12L16 12L16 9L14 9L14 8L17 8L17 7L18 7L18 6L17 6L17 5L19 5L19 4L17 4L17 5L14 5L14 4ZM24 4L24 5L25 5L25 4ZM8 6L8 7L9 7L9 6ZM14 6L14 7L15 7L15 6ZM16 6L16 7L17 7L17 6ZM19 6L19 9L21 9L21 8L20 8L20 6ZM6 8L6 9L7 9L7 8ZM8 8L8 9L9 9L9 8ZM1 9L1 10L2 10L2 9ZM11 9L11 10L12 10L12 9ZM24 9L24 10L25 10L25 9ZM31 10L31 11L32 11L32 10ZM2 11L2 12L3 12L3 11ZM11 11L11 13L10 13L10 14L11 14L11 13L12 13L12 12L13 12L13 11ZM0 13L0 15L1 15L1 13ZM2 14L2 15L3 15L3 14ZM12 14L12 16L10 16L10 17L9 17L9 18L8 18L8 19L12 19L12 20L7 20L7 21L4 21L4 20L3 20L3 21L4 21L4 23L5 23L5 24L7 24L7 23L8 23L8 24L9 24L9 23L10 23L10 24L11 24L11 23L14 23L14 22L15 22L15 24L12 24L12 26L13 26L13 27L14 27L14 26L15 26L15 27L16 27L16 28L17 28L17 30L18 30L18 28L19 28L19 23L20 23L20 27L23 27L23 25L24 25L24 24L23 24L23 25L22 25L22 23L21 23L21 22L18 22L18 23L17 23L17 22L16 22L16 20L15 20L15 21L13 21L13 18L15 18L15 17L14 17L14 15L13 15L13 14ZM15 14L15 15L17 15L17 16L16 16L16 18L18 18L18 20L19 20L19 19L20 19L20 16L21 16L21 15L18 15L18 14ZM27 15L27 17L28 17L28 15ZM29 15L29 16L30 16L30 15ZM12 16L12 17L13 17L13 16ZM18 16L18 18L19 18L19 16ZM22 16L22 17L23 17L23 16ZM31 17L31 18L32 18L32 17ZM21 18L21 20L20 20L20 21L21 21L21 20L22 20L22 18ZM28 18L28 19L29 19L29 18ZM1 20L1 21L2 21L2 20ZM8 21L8 23L9 23L9 22L10 22L10 21ZM5 22L5 23L7 23L7 22ZM16 23L16 24L15 24L15 25L16 25L16 27L17 27L17 26L18 26L18 24L17 24L17 23ZM16 24L16 25L17 25L17 24ZM13 25L13 26L14 26L14 25ZM25 25L25 28L28 28L28 25ZM26 26L26 27L27 27L27 26ZM23 30L23 33L24 33L24 32L28 32L28 33L29 33L29 32L28 32L28 31L27 31L27 30L26 30L26 31L25 31L25 30ZM29 30L29 31L30 31L30 30ZM32 31L32 32L33 32L33 31ZM30 32L30 33L31 33L31 32ZM0 0L0 7L7 7L7 0ZM1 1L1 6L6 6L6 1ZM2 2L2 5L5 5L5 2ZM26 0L26 7L33 7L33 0ZM27 1L27 6L32 6L32 1ZM28 2L28 5L31 5L31 2ZM0 26L0 33L7 33L7 26ZM1 27L1 32L6 32L6 27ZM2 28L2 31L5 31L5 28Z" fill="#000000"/></g></g></svg>
